# xmcd
#
# Track frame offsets:
#	150
#	17680
#	31915
#	48540
#	71100
#	90100
#	107815
#	128753
#	147543
#	161780
#
# Disc length: 2325 seconds
#
# Revision: 3
# Processed by: cddbd v1.4PL0 Copyright (c) Steve Scherf et al.
# Submitted via: CDmax 1.8
#
DISCID=8509130a
DTITLE=Paul Overstreet - Love is Strong
DYEAR=1992
DGENRE=Country
TTITLE0=Take Another Run
TTITLE1=Still Out There Swinging
TTITLE2=Me and My Baby
TTITLE3=There but for the Grace of God Go I
TTITLE4=Love is Strong
TTITLE5=Head Over Heels
TTITLE6=What's Going Without Saying
TTITLE7=Take Some Action
TTITLE8=Lord She Sure is Good at Loving Me
TTITLE9=Till the Answer Comes (Gotta Keep Praying)
EXTD=
EXTT0=
EXTT1=
EXTT2=
EXTT3=
EXTT4=
EXTT5=
EXTT6=
EXTT7=
EXTT8=
EXTT9=
PLAYORDER=
